<svg xmlns="http://www.w3.org/2000/svg" viewBox="0 0 64 80" x="0px" y="0px"><g><path d="M56.293,14.121,54,11.828l3.293-3.293a3.828,3.828,0,0,0-5.414-5.414L48.586,6.414,46.293,4.121a1,1,0,0,0-1.414,0l-3,3a1,1,0,0,0,0,1.414l1.293,1.293L31.879,21.121a1,1,0,0,0-.293.707v2.586l-1.707,1.707a3.122,3.122,0,0,0,4.414,4.414L36,28.828h2.586a1,1,0,0,0,.707-.293L50.586,17.242l1.293,1.293a1,1,0,0,0,1.414,0l3-3A1,1,0,0,0,56.293,14.121Zm-3-9.586a1.829,1.829,0,1,1,2.586,2.586l-3.293,3.293L50,7.828ZM38.172,26.828H35.586a1,1,0,0,0-.707.293l-2,2a1.263,1.263,0,0,1-1.587,0,1.22,1.22,0,0,1,0-1.585l2-2a1,1,0,0,0,.293-.707V22.242l11-11,4.586,4.586ZM52.586,16.414,44,7.828l1.586-1.586,8.586,8.586Z"/><path d="M15,20a4,4,0,1,0,4-4A4,4,0,0,0,15,20Zm6,0a2,2,0,1,1-2-2A2,2,0,0,1,21,20Z"/><path d="M49,30a3,3,0,1,0,3,3A3,3,0,0,0,49,30Zm0,4a1,1,0,1,1,1-1A1,1,0,0,1,49,34Z"/><path d="M21,36a3,3,0,1,0-3,3A3,3,0,0,0,21,36Zm-3,1a1,1,0,1,1,1-1A1,1,0,0,1,18,37Z"/><polygon points="30 17 30 15 32 15 32 13 30 13 30 11 28 11 28 13 26 13 26 15 28 15 28 17 30 17"/><polygon points="58 21 56 21 56 23 54 23 54 25 56 25 56 27 58 27 58 25 60 25 60 23 58 23 58 21"/><polygon points="9 26 7 26 7 28 5 28 5 30 7 30 7 32 9 32 9 30 11 30 11 28 9 28 9 26"/><rect x="23" y="56" width="2" height="2"/><rect x="27" y="56" width="4" height="2"/><path d="M38,44.766V39h2V33H24v6h2v5.766l-6.821,9.663a4.866,4.866,0,0,0-.431,5.1A4.673,4.673,0,0,0,23,62H41a4.673,4.673,0,0,0,4.252-2.469,4.866,4.866,0,0,0-.431-5.1ZM26,35H38v2H26Zm2,10.4V39h8v6.4L39.247,50H24.753ZM43.48,58.6A2.675,2.675,0,0,1,41,60H23a2.675,2.675,0,0,1-2.48-1.4,2.9,2.9,0,0,1,.3-3.027L23.342,52H40.658l2.523,3.574A2.9,2.9,0,0,1,43.48,58.6Z"/></g></svg>